<?xml version="1.0" encoding="utf-8"?>
<!-- Generated by IcoMoon.io -->
<!DOCTYPE svg PUBLIC "-//W3C//DTD SVG 1.1//EN" "http://www.w3.org/Graphics/SVG/1.1/DTD/svg11.dtd">
<svg version="1.1" xmlns="http://www.w3.org/2000/svg" xmlns:xlink="http://www.w3.org/1999/xlink" width="18" height="18" viewBox="0 0 18 18">
<path fill="#aaaaaa" d="M7.5 0.75q1.371 0 2.622 0.536t2.153 1.438 1.438 2.153 0.536 2.622q0 1.178-0.384 2.256t-1.093 1.957l4.26 4.254q0.217 0.217 0.217 0.533 0 0.322-0.214 0.536t-0.536 0.214q-0.316 0-0.533-0.217l-4.254-4.26q-0.879 0.709-1.957 1.093t-2.256 0.384q-1.371 0-2.622-0.536t-2.153-1.438-1.438-2.153-0.536-2.622 0.536-2.622 1.438-2.153 2.153-1.438 2.622-0.536zM7.5 2.25q-1.066 0-2.039 0.416t-1.676 1.119-1.119 1.676-0.416 2.039 0.416 2.039 1.119 1.676 1.676 1.119 2.039 0.416 2.039-0.416 1.676-1.119 1.119-1.676 0.416-2.039-0.416-2.039-1.119-1.676-1.676-1.119-2.039-0.416z"></path>
</svg>
