<svg style="position: absolute; width: 0; height: 0; overflow: hidden;" version="1.1" xmlns="http://www.w3.org/2000/svg" xmlns:xlink="http://www.w3.org/1999/xlink">

<defs>

<symbol id="icn-activity" viewBox="0 0 24 24">
	<polyline points="22 12 18 12 15 21 9 3 6 12 2 12"></polyline>
</symbol>

<symbol id="icn-home" viewBox="0 0 24 24">
	<path d="M3 9l9-7 9 7v11a2 2 0 0 1-2 2H5a2 2 0 0 1-2-2z"></path><polyline points="9 22 9 12 15 12 15 22"></polyline>
</symbol>

<symbol id="icn-chevron-right" viewBox="0 0 24 24">
	<polyline points="9 18 15 12 9 6"></polyline>
</symbol>

<symbol id="icn-chevron-left" viewBox="0 0 24 24">
	<polyline points="15 18 9 12 15 6"></polyline>
</symbol>

<symbol id="icn-chevron-down" viewBox="0 0 24 24">
	<polyline points="6 9 12 15 18 9"></polyline>
</symbol>

<symbol id="icn-chevron-up" viewBox="0 0 24 24">
	<polyline points="18 15 12 9 6 15"></polyline>
</symbol>

<symbol  id="icn-arrow-up" viewBox="0 0 24 24">
	<line x1="12" y1="19" x2="12" y2="5"></line><polyline points="5 12 12 5 19 12"></polyline>
</symbol>

<symbol id="icn-arrow-left" viewBox="0 0 24 24">
	<line x1="19" y1="12" x2="5" y2="12"></line><polyline points="12 19 5 12 12 5"></polyline>
</symbol>

<symbol id="icn-arrow-right" viewBox="0 0 24 24">
	<line x1="5" y1="12" x2="19" y2="12"></line><polyline points="12 5 19 12 12 19"></polyline>
</symbol>

<symbol id="icn-rss" viewBox="0 0 24 24">
	<path d="M4 11a9 9 0 0 1 9 9"></path><path d="M4 4a16 16 0 0 1 16 16"></path><circle cx="5" cy="19" r="1"></circle>
</symbol>

<symbol id="icn-settings" viewBox="0 0 24 24">
	<circle cx="12" cy="12" r="3"></circle><path d="M19.4 15a1.65 1.65 0 0 0 .33 1.82l.06.06a2 2 0 0 1 0 2.83 2 2 0 0 1-2.83 0l-.06-.06a1.65 1.65 0 0 0-1.82-.33 1.65 1.65 0 0 0-1 1.51V21a2 2 0 0 1-2 2 2 2 0 0 1-2-2v-.09A1.65 1.65 0 0 0 9 19.4a1.65 1.65 0 0 0-1.82.33l-.06.06a2 2 0 0 1-2.83 0 2 2 0 0 1 0-2.83l.06-.06a1.65 1.65 0 0 0 .33-1.82 1.65 1.65 0 0 0-1.51-1H3a2 2 0 0 1-2-2 2 2 0 0 1 2-2h.09A1.65 1.65 0 0 0 4.6 9a1.65 1.65 0 0 0-.33-1.82l-.06-.06a2 2 0 0 1 0-2.83 2 2 0 0 1 2.83 0l.06.06a1.65 1.65 0 0 0 1.82.33H9a1.65 1.65 0 0 0 1-1.51V3a2 2 0 0 1 2-2 2 2 0 0 1 2 2v.09a1.65 1.65 0 0 0 1 1.51 1.65 1.65 0 0 0 1.82-.33l.06-.06a2 2 0 0 1 2.83 0 2 2 0 0 1 0 2.83l-.06.06a1.65 1.65 0 0 0-.33 1.82V9a1.65 1.65 0 0 0 1.51 1H21a2 2 0 0 1 2 2 2 2 0 0 1-2 2h-.09a1.65 1.65 0 0 0-1.51 1z"></path>
</symbol>

<symbol id="icn-bell" viewBox="0 0 24 24">
	<path d="M22 17H2a3 3 0 0 0 3-3V9a7 7 0 0 1 14 0v5a3 3 0 0 0 3 3zm-8.27 4a2 2 0 0 1-3.46 0"></path>
</symbol>

<symbol id="icn-mail" viewBox="0 0 24 24">
	<path d="M4 4h16c1.1 0 2 .9 2 2v12c0 1.1-.9 2-2 2H4c-1.1 0-2-.9-2-2V6c0-1.1.9-2 2-2z"></path><polyline points="22,6 12,13 2,6"></polyline>
</symbol>

<symbol id="icn-eye" viewBox="0 0 24 24">
	<path d="M1 12s4-8 11-8 11 8 11 8-4 8-11 8-11-8-11-8z"></path><circle cx="12" cy="12" r="3"></circle>
</symbol>

<symbol id="icn-eye-off" viewBox="0 0 24 24">
	<path d="M17.94 17.94A10.07 10.07 0 0 1 12 20c-7 0-11-8-11-8a18.45 18.45 0 0 1 5.06-5.94M9.9 4.24A9.12 9.12 0 0 1 12 4c7 0 11 8 11 8a18.5 18.5 0 0 1-2.16 3.19m-6.72-1.07a3 3 0 1 1-4.24-4.24"></path><line x1="1" y1="1" x2="23" y2="23"></line>
</symbol>

<symbol id="icn-trash" viewBox="0 0 24 24">
	<polyline points="3 6 5 6 21 6"></polyline><path d="M19 6v14a2 2 0 0 1-2 2H7a2 2 0 0 1-2-2V6m3 0V4a2 2 0 0 1 2-2h4a2 2 0 0 1 2 2v2"></path>
</symbol>

<symbol id="icn-heart" viewBox="0 0 24 24">
	<path d="M20.84 4.61a5.5 5.5 0 0 0-7.78 0L12 5.67l-1.06-1.06a5.5 5.5 0 0 0-7.78 7.78l1.06 1.06L12 21.23l7.78-7.78 1.06-1.06a5.5 5.5 0 0 0 0-7.78z"></path>
</symbol>

<symbol id="icn-message-square" viewBox="0 0 24 24">
	<path d="M21 15a2 2 0 0 1-2 2H7l-4 4V5a2 2 0 0 1 2-2h14a2 2 0 0 1 2 2z"></path>
</symbol>

<symbol id="icn-message-circle" viewBox="0 0 24 24">
	<path d="M21 11.5a8.38 8.38 0 0 1-.9 3.8 8.5 8.5 0 0 1-7.6 4.7 8.38 8.38 0 0 1-3.8-.9L3 21l1.9-5.7a8.38 8.38 0 0 1-.9-3.8 8.5 8.5 0 0 1 4.7-7.6 8.38 8.38 0 0 1 3.8-.9h.5a8.48 8.48 0 0 1 8 8v.5z"></path>
</symbol>

<symbol id="icn-calendar" viewBox="0 0 24 24">
	<rect x="3" y="4" width="18" height="18" rx="2" ry="2"></rect><line x1="16" y1="2" x2="16" y2="6"></line><line x1="8" y1="2" x2="8" y2="6"></line><line x1="3" y1="10" x2="21" y2="10"></line>
</symbol>

<symbol id="icn-link" viewBox="0 0 24 24">
	<path d="M10 13a5 5 0 0 0 7.54.54l3-3a5 5 0 0 0-7.07-7.07l-1.72 1.71"></path><path d="M14 11a5 5 0 0 0-7.54-.54l-3 3a5 5 0 0 0 7.07 7.07l1.71-1.71"></path>
</symbol>

<symbol id="icn-link-2" viewBox="0 0 24 24">
	<path d="M15 7h3a5 5 0 0 1 5 5 5 5 0 0 1-5 5h-3m-6 0H6a5 5 0 0 1-5-5 5 5 0 0 1 5-5h3"></path><line x1="8" y1="12" x2="16" y2="12"></line>
</symbol>

<symbol id="icn-x" viewBox="0 0 24 24">
	<line x1="18" y1="6" x2="6" y2="18"></line><line x1="6" y1="6" x2="18" y2="18"></line>
</symbol>

<symbol id="icn-at-sign" viewBox="0 0 24 24">
	<circle cx="12" cy="12" r="4"></circle><path d="M16 8v5a3 3 0 0 0 6 0v-1a10 10 0 1 0-3.92 7.94"></path>
</symbol>

<symbol id="icn-search" viewBox="0 0 24 24">
	<circle cx="11" cy="11" r="8"></circle><line x1="21" y1="21" x2="16.65" y2="16.65"></line>
</symbol>

<symbol id="icn-star" viewBox="0 0 24 24">
	<polygon points="12 2 15.09 8.26 22 9.27 17 14.14 18.18 21.02 12 17.77 5.82 21.02 7 14.14 2 9.27 8.91 8.26 12 2"></polygon>
</symbol>

<symbol id="icn-shopping-bag" viewBox="0 0 24 24">
	<path d="M6 2L3 6v14a2 2 0 0 0 2 2h14a2 2 0 0 0 2-2V6l-3-4z"></path><line x1="3" y1="6" x2="21" y2="6"></line><path d="M16 10a4 4 0 0 1-8 0"></path>
</symbol>

<symbol id="icn-shopping-cart" viewBox="0 0 24 24">
	<circle cx="9" cy="21" r="1"></circle><circle cx="20" cy="21" r="1"></circle><path d="M1 1h4l2.68 13.39a2 2 0 0 0 2 1.61h9.72a2 2 0 0 0 2-1.61L23 6H6"></path>
</symbol>

<symbol id="icn-menu" viewBox="0 0 24 24">
	<line x1="3" y1="12" x2="21" y2="12"></line><line x1="3" y1="6" x2="21" y2="6"></line><line x1="3" y1="18" x2="21" y2="18"></line>
</symbol>

<symbol id="icn-more-horizontal" viewBox="0 0 24 24">
	<circle cx="12" cy="12" r="1"></circle><circle cx="19" cy="12" r="1"></circle><circle cx="5" cy="12" r="1"></circle>
</symbol>

<symbol id="icn-more-vertical" viewBox="0 0 24 24" fill="none">
	<circle cx="12" cy="12" r="1"></circle><circle cx="12" cy="5" r="1"></circle><circle cx="12" cy="19" r="1"></circle>
</symbol>

<symbol id="icn-user" viewBox="0 0 24 24">
	<path d="M20 21v-2a4 4 0 0 0-4-4H8a4 4 0 0 0-4 4v2"></path><circle cx="12" cy="7" r="4"></circle>
</symbol>

<symbol id="icn-user-plus" viewBox="0 0 24 24">
	<path d="M16 21v-2a4 4 0 0 0-4-4H5a4 4 0 0 0-4 4v2"></path><circle cx="8.5" cy="7" r="4"></circle><line x1="20" y1="8" x2="20" y2="14"></line><line x1="23" y1="11" x2="17" y2="11"></line>
</symbol>

<symbol id="icn-log-in" viewBox="0 0 24 24">
	<path d="M15 3h4a2 2 0 0 1 2 2v14a2 2 0 0 1-2 2h-4"></path><polyline points="10 17 15 12 10 7"></polyline><line x1="15" y1="12" x2="3" y2="12"></line>
</symbol>

<symbol id="icn-log-out" viewBox="0 0 24 24">
	<path d="M9 21H5a2 2 0 0 1-2-2V5a2 2 0 0 1 2-2h4"></path><polyline points="16 17 21 12 16 7"></polyline><line x1="21" y1="12" x2="9" y2="12"></line>
</symbol>

<symbol id="icn-info" viewBox="0 0 24 24">
	<circle cx="12" cy="12" r="10"></circle><line x1="12" y1="16" x2="12" y2="12"></line><line x1="12" y1="8" x2="12" y2="8"></line>
</symbol>

<symbol id="icn-filter" viewBox="0 0 24 24">
	<polygon points="22 3 2 3 10 12.46 10 19 14 21 14 12.46 22 3"></polygon>
</symbol>

<symbol id="icn-flag" viewBox="0 0 24 24">
	<path d="M4 15s1-1 4-1 5 2 8 2 4-1 4-1V3s-1 1-4 1-5-2-8-2-4 1-4 1z"></path><line x1="4" y1="22" x2="4" y2="15"></line>
</symbol>

<symbol id="icn-sliders" viewBox="0 0 24 24">
	<line x1="4" y1="21" x2="4" y2="14"></line><line x1="4" y1="10" x2="4" y2="3"></line><line x1="12" y1="21" x2="12" y2="12"></line><line x1="12" y1="8" x2="12" y2="3"></line><line x1="20" y1="21" x2="20" y2="16"></line><line x1="20" y1="12" x2="20" y2="3"></line><line x1="1" y1="14" x2="7" y2="14"></line><line x1="9" y1="8" x2="15" y2="8"></line><line x1="17" y1="16" x2="23" y2="16"></line>
</symbol>

<symbol id="icn-edit" viewBox="0 0 24 24">
	<path d="M20 14.66V20a2 2 0 0 1-2 2H4a2 2 0 0 1-2-2V6a2 2 0 0 1 2-2h5.34"></path><polygon points="18 2 22 6 12 16 8 16 8 12 18 2"></polygon>
</symbol>

<symbol id="icn-zoom-in" viewBox="0 0 24 24">
	<circle cx="11" cy="11" r="8"></circle><line x1="21" y1="21" x2="16.65" y2="16.65"></line><line x1="11" y1="8" x2="11" y2="14"></line><line x1="8" y1="11" x2="14" y2="11"></line>
</symbol>

<symbol id="icn-zoom-out" viewBox="0 0 24 24">
	<circle cx="11" cy="11" r="8"></circle><line x1="21" y1="21" x2="16.65" y2="16.65"></line><line x1="8" y1="11" x2="14" y2="11"></line>
</symbol>

<symbol id="icn-corner-down-right" viewBox="0 0 24 24">
	<polyline points="15 10 20 15 15 20"></polyline><path d="M4 4v7a4 4 0 0 0 4 4h12"></path>
</symbol>


<symbol id="icn-x-circle" viewBox="0 0 24 24">
	<circle cx="12" cy="12" r="10"></circle><line x1="15" y1="9" x2="9" y2="15"></line><line x1="9" y1="9" x2="15" y2="15"></line>
</symbol>


<symbol id="icn-folder" viewBox="0 0 24 24">
	<path d="M22 19a2 2 0 0 1-2 2H4a2 2 0 0 1-2-2V5a2 2 0 0 1 2-2h5l2 3h9a2 2 0 0 1 2 2z"></path>
</symbol>

<symbol id="icn-list" viewBox="0 0 24 24">
	<line x1="8" y1="6" x2="21" y2="6"></line><line x1="8" y1="12" x2="21" y2="12"></line><line x1="8" y1="18" x2="21" y2="18"></line><line x1="3" y1="6" x2="3" y2="6"></line><line x1="3" y1="12" x2="3" y2="12"></line><line x1="3" y1="18" x2="3" y2="18"></line>
</symbol>

</defs>

</svg>